<svg xmlns="http://www.w3.org/2000/svg" viewBox="0 0 1024 500">
  <defs>
    <linearGradient id="bg" x1="0" x2="1024" y1="0" y2="500" gradientUnits="userSpaceOnUse">
      <stop offset="0" stop-color="#f35f5b"/>
      <stop offset="0.48" stop-color="#d94763"/>
      <stop offset="1" stop-color="#553c8b"/>
    </linearGradient>
    <linearGradient id="panel" x1="596" x2="900" y1="76" y2="424" gradientUnits="userSpaceOnUse">
      <stop offset="0" stop-color="#fffdf4"/>
      <stop offset="1" stop-color="#f2ead7"/>
    </linearGradient>
    <linearGradient id="tileGreen" x1="635" x2="835" y1="124" y2="324" gradientUnits="userSpaceOnUse">
      <stop offset="0" stop-color="#21d8a6"/>
      <stop offset="1" stop-color="#0c9b7c"/>
    </linearGradient>
    <linearGradient id="tileLight" x1="630" x2="850" y1="122" y2="365" gradientUnits="userSpaceOnUse">
      <stop offset="0" stop-color="#ffffff"/>
      <stop offset="1" stop-color="#e9deca"/>
    </linearGradient>
    <filter id="bigShadow" x="-15%" y="-12%" width="130%" height="140%" color-interpolation-filters="sRGB">
      <feDropShadow dx="0" dy="26" stdDeviation="18" flood-color="#24133e" flood-opacity="0.32"/>
    </filter>
    <filter id="tileShadow" x="-24%" y="-24%" width="148%" height="156%" color-interpolation-filters="sRGB">
      <feDropShadow dx="0" dy="10" stdDeviation="8" flood-color="#321c3f" flood-opacity="0.22"/>
    </filter>
    <filter id="textShadow" x="-8%" y="-20%" width="116%" height="150%" color-interpolation-filters="sRGB">
      <feDropShadow dx="0" dy="8" stdDeviation="8" flood-color="#32183f" flood-opacity="0.25"/>
    </filter>
    <filter id="glow" x="-60%" y="-60%" width="220%" height="220%" color-interpolation-filters="sRGB">
      <feGaussianBlur stdDeviation="12" result="blur"/>
      <feColorMatrix in="blur" type="matrix" values="0 0 0 0 0.1 0 0 0 0 0.95 0 0 0 0 0.73 0 0 0 0.85 0"/>
      <feBlend in2="SourceGraphic" mode="normal"/>
    </filter>
  </defs>

  <rect width="1024" height="500" fill="url(#bg)"/>
  <circle cx="834" cy="54" r="235" fill="#ffffff" opacity="0.11"/>
  <circle cx="168" cy="432" r="280" fill="#171a42" opacity="0.13"/>
  <path d="M0 360c98 68 217 96 357 84 150-13 277-76 383-188 86-91 182-134 284-126v370H0V360Z" fill="#171a42" opacity="0.12"/>

  <g filter="url(#textShadow)">
    <text x="70" y="150" fill="#ffffff" font-family="Arial, Helvetica, sans-serif" font-size="66" font-weight="900">10 или равно</text>
    <text x="74" y="212" fill="#fff6d8" font-family="Arial, Helvetica, sans-serif" font-size="34" font-weight="700">Игра на внимание</text>
    <text x="74" y="288" fill="#ffffff" font-family="Arial, Helvetica, sans-serif" font-size="34" font-weight="700">Находите пары чисел</text>
  </g>

  <g transform="translate(74 322)">
    <rect x="0" y="0" width="158" height="58" rx="29" fill="#ffffff" opacity="0.22"/>
    <text x="79" y="38" fill="#ffffff" font-family="Arial, Helvetica, sans-serif" font-size="26" font-weight="800" text-anchor="middle">равные</text>
    <rect x="180" y="0" width="194" height="58" rx="29" fill="#ffca3a"/>
    <text x="277" y="39" fill="#6f2f62" font-family="Arial, Helvetica, sans-serif" font-size="28" font-weight="900" text-anchor="middle">сумма 10</text>
  </g>

  <g transform="translate(610 46)" filter="url(#bigShadow)">
    <rect x="0" y="0" width="360" height="408" rx="46" fill="url(#panel)"/>
    <rect x="26" y="28" width="308" height="344" rx="30" fill="#231b37" opacity="0.06"/>

    <g filter="url(#tileShadow)">
      <rect x="43" y="48" width="88" height="88" rx="18" fill="url(#tileLight)"/>
      <rect x="136" y="48" width="88" height="88" rx="18" fill="url(#tileGreen)"/>
      <rect x="229" y="48" width="88" height="88" rx="18" fill="url(#tileLight)"/>
      <rect x="43" y="141" width="88" height="88" rx="18" fill="url(#tileLight)"/>
      <rect x="136" y="141" width="88" height="88" rx="18" fill="url(#tileLight)"/>
      <rect x="229" y="141" width="88" height="88" rx="18" fill="url(#tileGreen)"/>
      <rect x="43" y="234" width="88" height="88" rx="18" fill="url(#tileLight)"/>
      <rect x="136" y="234" width="88" height="88" rx="18" fill="url(#tileLight)"/>
      <rect x="229" y="234" width="88" height="88" rx="18" fill="url(#tileLight)"/>
    </g>

    <path d="M180 92h93v93" fill="none" stroke="#16c596" stroke-linecap="round" stroke-linejoin="round" stroke-width="18" filter="url(#glow)"/>
    <path d="M180 92h93v93" fill="none" stroke="#ffffff" stroke-linecap="round" stroke-linejoin="round" stroke-opacity="0.92" stroke-width="8"/>

    <g font-family="Arial, Helvetica, sans-serif" font-weight="900" text-anchor="middle">
      <text x="180" y="110" fill="#ffffff" font-size="60">1</text>
      <text x="273" y="204" fill="#ffffff" font-size="60">9</text>
      <text x="87" y="111" fill="#5f536f" font-size="45">4</text>
      <text x="273" y="111" fill="#5f536f" font-size="45">7</text>
      <text x="87" y="204" fill="#5f536f" font-size="45">6</text>
      <text x="180" y="204" fill="#5f536f" font-size="45">3</text>
      <text x="87" y="297" fill="#5f536f" font-size="45">8</text>
      <text x="180" y="297" fill="#5f536f" font-size="45">2</text>
      <text x="273" y="297" fill="#5f536f" font-size="45">5</text>
    </g>

    <g transform="translate(170 165)">
      <circle cx="0" cy="0" r="30" fill="#ffca3a"/>
      <path d="M-14 0h28M0-14v28" stroke="#6f2f62" stroke-linecap="round" stroke-width="8"/>
    </g>
  </g>

</svg>
